<?xml version="1.0" encoding="UTF-8" standalone="no"?>
<svg width="40px" height="40px" viewBox="0 0 40 40" version="1.1" xmlns="http://www.w3.org/2000/svg" xmlns:xlink="http://www.w3.org/1999/xlink">
    <!-- Generator: Sketch 3.7.2 (28276) - http://www.bohemiancoding.com/sketch -->
    <title>Avatar</title>
    <desc>Created with Sketch.</desc>
    <defs>
        <path d="M20,20 C22.7614237,20 25,17.3137085 25,14 C25,10.6862915 22.7614237,9 20,9 C17.2385763,9 15,10.6862915 15,14 C15,17.3137085 17.2385763,20 20,20 Z" id="path-1"></path>
        <mask id="mask-2" maskContentUnits="userSpaceOnUse" maskUnits="objectBoundingBox" x="0" y="0" width="10" height="11" fill="white">
            <use xlink:href="#path-1"></use>
        </mask>
        <path d="M29.5,28 C29.5,24.1340068 25.2467051,21 20,21 C14.7532949,21 10.5,24.1340068 10.5,28 C10.5,31.8659932 29.5,31.8659932 29.5,28 Z" id="path-3"></path>
        <mask id="mask-4" maskContentUnits="userSpaceOnUse" maskUnits="objectBoundingBox" x="0" y="0" width="19" height="9.89949494" fill="white">
            <use xlink:href="#path-3"></use>
        </mask>
    </defs>
    <g id="Page-1" stroke="none" stroke-width="1" fill="none" fill-rule="evenodd">
        <g id="Header" transform="translate(-1109.000000, -52.000000)">
            <g id="Avatar" transform="translate(1109.000000, 52.000000)">
                <circle id="Oval-12" fill="#CACFD2" cx="20" cy="20" r="20"></circle>
                <use id="Oval-328" stroke="#FFFFFF" mask="url(#mask-2)" stroke-width="2" xlink:href="#path-1"></use>
                <use id="Oval-328" stroke="#FFFFFF" mask="url(#mask-4)" stroke-width="2" xlink:href="#path-3"></use>
            </g>
        </g>
    </g>
</svg>