<?xml version="1.0" encoding="UTF-8" standalone="no"?>
<svg width="117px" height="16px" viewBox="0 0 117 16" version="1.1" xmlns="http://www.w3.org/2000/svg" xmlns:xlink="http://www.w3.org/1999/xlink">
    <!-- Generator: Sketch 3.8.2 (29753) - http://www.bohemiancoding.com/sketch -->
    <title>DYNAMICA</title>
    <desc>Created with Sketch.</desc>
    <defs></defs>
    <g id="design" stroke="none" stroke-width="1" fill="none" fill-rule="evenodd">
        <g id="Landing" transform="translate(-80.000000, -58.000000)" fill="#fff">
            <path d="M90.2890625,59.8798828 C91.4153702,60.4690785 92.2926401,61.2926379 92.9208984,62.3505859 C93.5491568,63.4085339 93.8632812,64.6243421 93.8632812,65.9980469 C93.8632812,67.3587308 93.5426464,68.5696562 92.9013672,69.6308594 C92.2600879,70.6920626 91.3665422,71.5188772 90.2207031,72.1113281 C89.0748641,72.703779 87.759773,73 86.2753906,73 L80.3964844,73 L80.3964844,58.9960938 L86.421875,58.9960938 C87.8737052,58.9960938 89.1627548,59.2906872 90.2890625,59.8798828 L90.2890625,59.8798828 Z M83.9609375,70.1582031 L86.5,70.1582031 C87.2226599,70.1582031 87.8671847,69.9856788 88.4335938,69.640625 C89.0000028,69.2955712 89.4427067,68.8089224 89.7617188,68.1806641 C90.0807308,67.5524057 90.2402344,66.8313843 90.2402344,66.0175781 C90.2402344,65.203772 90.0742204,64.4811229 89.7421875,63.8496094 C89.4101546,63.2180958 88.946292,62.7249367 88.3505859,62.3701172 C87.7548798,62.0152977 87.0859412,61.8378906 86.34375,61.8378906 L83.9609375,61.8378906 L83.9609375,70.1582031 Z M103.51888,73 L99.9739584,73 L99.9739584,68.5761719 L94.7981771,58.9960938 L98.3528646,58.9960938 L101.731771,65.0996094 L105.032552,58.9960938 L108.597005,58.9960938 L103.51888,68.4785156 L103.51888,73 Z M120.254557,73 L113.809245,64.3769531 L113.809245,73 L110.469401,73 L110.469401,58.9960938 L113.613932,58.9960938 L120.06901,67.6386719 L120.06901,58.9960938 L123.389323,58.9960938 L123.389323,73 L120.254557,73 Z M129.949219,70.421875 L128.933594,73 L125.271484,73 L131.306641,58.9960938 L134.96875,58.9960938 L140.867188,73 L137.068359,73 L136.072266,70.421875 L129.949219,70.421875 Z M133.025391,62.5410156 L130.984375,67.7167969 L135.027344,67.7167969 L133.025391,62.5410156 Z M154.985677,73 L154.966146,63.8984375 L151.606771,71.6035156 L149.282552,71.6035156 L145.923177,63.8984375 L145.923177,73 L142.739583,73 L142.739583,58.9765625 L146.645833,58.9765625 L150.444662,67.3164062 L154.24349,58.9765625 L158.120443,58.9765625 L158.120443,73 L154.985677,73 Z M161.516276,73 L161.516276,58.9960938 L165.080729,58.9960938 L165.080729,73 L161.516276,73 Z M178.090821,59.5185547 C179.096685,59.9449891 179.954424,60.5195276 180.664063,61.2421875 L178.603516,63.6835938 C178.147784,63.1236951 177.60417,62.6793636 176.972656,62.3505859 C176.341143,62.0218083 175.709639,61.8574219 175.078125,61.8574219 C174.342444,61.8574219 173.678389,62.034829 173.085938,62.3896484 C172.493487,62.7444679 172.027997,63.2311167 171.689453,63.8496094 C171.35091,64.4681021 171.181641,65.1581993 171.181641,65.9199219 C171.181641,66.6946653 171.35091,67.3945281 171.689453,68.0195312 C172.027997,68.6445344 172.495114,69.1376935 173.090821,69.4990234 C173.686527,69.8603534 174.348955,70.0410156 175.078125,70.0410156 C175.664066,70.0410156 176.274411,69.8945327 176.90918,69.6015625 C177.543949,69.3085923 178.108722,68.9082057 178.603516,68.4003906 L180.683594,70.5976562 C179.921871,71.3723997 179.025071,71.9925107 177.993164,72.4580078 C176.961258,72.9235049 175.930995,73.15625 174.902344,73.15625 C173.515618,73.15625 172.262376,72.8437531 171.142578,72.21875 C170.022781,71.5937469 169.142256,70.7311253 168.500977,69.6308594 C167.859698,68.5305935 167.539063,67.3066474 167.539063,65.9589844 C167.539063,64.6243423 167.866208,63.4215548 168.520508,62.3505859 C169.174808,61.279617 170.071609,60.4332713 171.210938,59.8115234 C172.350266,59.1897755 173.619785,58.8789062 175.019531,58.8789062 C176.061203,58.8789062 177.084956,59.0921203 178.090821,59.5185547 L178.090821,59.5185547 Z M185.92513,70.421875 L184.909505,73 L181.247396,73 L187.282552,58.9960938 L190.944662,58.9960938 L196.843099,73 L193.044271,73 L192.048177,70.421875 L185.92513,70.421875 Z M189.001302,62.5410156 L186.960287,67.7167969 L191.003255,67.7167969 L189.001302,62.5410156 Z" id="DYNAMICA"></path>
        </g>
    </g>
</svg>